<?xml version="1.0" encoding="utf-8"?>
<!-- Generator: Adobe Illustrator 23.0.3, SVG Export Plug-In . SVG Version: 6.00 Build 0)  -->
<svg version="1.1" id="Layer_1" xmlns="http://www.w3.org/2000/svg" xmlns:xlink="http://www.w3.org/1999/xlink" x="0px" y="0px"
	 viewBox="0 0 200 200" style="enable-background:new 0 0 200 200;" xml:space="preserve">
<style type="text/css">
	.st0{fill:#F50057;stroke:#000000;stroke-miterlimit:10;}
	.st1{fill:#F492BB;stroke:#000000;stroke-miterlimit:10;}
</style>
<polygon class="st0" points="125.9,68 185.9,72 146.2,117.2 160.9,175.5 105.7,151.7 54.8,183.7 60.3,123.8 14.1,85.3 72.8,72.1 
	95.2,16.3 "/>
<polygon class="st1" points="120.7,74.4 168.6,77.6 136.9,113.7 148.7,160.3 104.5,141.3 63.9,166.9 68.3,119.1 31.4,88.3 
	78.3,77.7 96.1,33.1 "/>
<polygon class="st0" points="110.8,86.7 135.7,88.4 119.2,107.1 125.3,131.4 102.4,121.5 81.2,134.8 83.5,109.9 64.3,93.9 
	88.7,88.4 98,65.2 "/>
</svg>
